#!OML:ASF F:\VICON\USERDATA\INSTALL\rory3\rory3.ASF
:FULLY-SPECIFIED
:DEGREES
231
root 1.31571 17.6939 -17.2843 3.10021 -0.316193 -0.416484
lowerback 7.28905 -0.125758 -0.128415
upperback -0.163657 -0.0631979 2.66335
thorax -4.25814 -7.35019e-005 2.84329
lowerneck -18.9506 -4.45182 -9.65737
upperneck 14.916 -4.74828 6.92549
head 8.13719 -2.12269 3.30163
rclavicle -1.19271e-014 2.62396e-014
rhumerus -38.8393 -13.8175 -74.7853
rradius 30.4863
rwrist 9.05689
rhand -14.7974 16.0611
rfingers 7.12502
rthumb 11.3602 -13.6112
lclavicle -1.19271e-014 2.62396e-014
lhumerus -38.9262 14.0991 82.5461
lradius 24.3992
lwrist -13.3841
lhand -10.1399 30.3576
lfingers 7.12502
lthumb 15.8489 59.729
rfemur -10.5659 3.21502 20.5389
rtibia 24.7998
rfoot -11.5583 -9.51385
rtoes -0.194427
lfemur -11.1391 -1.80482 -20.6581
ltibia 25.1639
lfoot -14.0675 3.18561
ltoes 3.5222
232
root 1.32047 17.7052 -17.2898 3.16035 -0.480393 -0.31853
lowerback 7.23834 -0.0708211 -0.249882
upperback -0.205305 -0.00195323 2.62168
thorax -4.27598 0.0329238 2.86178
lowerneck -19.27 -4.44195 -9.69065
upperneck 15.1277 -4.71339 6.97635
head 8.26239 -2.09813 3.32841
rclavicle -5.06901e-015 -9.54166e-015
rhumerus -38.6226 -13.6774 -74.8523
rradius 30.5624
rwrist 8.62774
rhand -14.1148 14.259
rfingers 7.12502
rthumb 12.0184 -15.376
lclavicle -5.06901e-015 -9.54166e-015
lhumerus -38.8338 13.7275 82.5307
lradius 24.3044
lwrist -13.2035
lhand -10.6681 29.4138
lfingers 7.12502
lthumb 15.3402 58.8248
rfemur -10.4941 3.24473 20.3802
rtibia 24.529
rfoot -11.5248 -9.20995
rtoes 0.44286
lfemur -11.0447 -1.848 -20.8066
ltibia 24.8028
lfoot -13.8022 3.42048
ltoes 2.89513
233
root 1.32295 17.714 -17.2971 3.16204 -0.657706 -0.286952
lowerback 7.17088 -0.0213531 -0.358736
upperback -0.176044 0.0541717 2.64202
thorax -4.21067 0.0625673 2.93768
lowerneck -19.4519 -4.48396 -9.70157
upperneck 15.2549 -4.73503 6.87465
head 8.33621 -2.11658 3.29195
rclavicle -1.21259e-014 1.98785e-014
rhumerus -38.2291 -13.6953 -74.828
rradius 30.5252
rwrist 8.45559
rhand -13.8834 13.7836
rfingers 7.12502
rthumb 12.2416 -15.8382
lclavicle -1.21259e-014 1.98785e-014
lhumerus -38.6852 13.8921 82.328
lradius 24.2133
lwrist -13.5253
lhand -10.6291 29.2766
lfingers 7.12502
lthumb 15.3778 58.6848
rfemur -10.3883 3.35418 20.3126
rtibia 24.276
rfoot -11.4694 -9.04987
rtoes 1.02597
lfemur -10.949 -1.78885 -20.8794
ltibia 24.4936
lfoot -13.5893 3.59814
ltoes 2.21052
234
root 1.32916 17.7192 -17.3057 3.03761 -0.702511 -0.260196
lowerback 7.2052 -0.0265544 -0.393339
upperback -0.136674 0.0442234 2.65105
thorax -4.18856 0.0579554 2.96766
lowerneck -19.3648 -4.49899 -9.83997
upperneck 15.2993 -4.73363 6.90778
head 8.34054 -2.12278 3.32719
rclavicle -6.85807e-015 -7.95139e-015
rhumerus -37.9402 -13.7849 -74.7539
rradius 30.3224
rwrist 8.28713
rhand -13.7098 13.2701
rfingers 7.12502
rthumb 12.4089 -16.3416
lclavicle -6.85807e-015 -7.95139e-015
lhumerus -38.5269 14.1666 82.096
lradius 24.1455
lwrist -13.8528
lhand -10.5437 29.988
lfingers 7.12502
lthumb 15.4601 59.3898
rfemur -10.1737 3.30587 20.2471
rtibia 24.036
rfoot -11.3838 -8.91941
rtoes 1.43342
lfemur -10.6965 -1.77665 -20.9538
ltibia 24.1598
lfoot -13.389 3.65778
ltoes 1.80249
235
root 1.33519 17.7233 -17.3125 2.86983 -0.600464 -0.289644
lowerback 7.26466 -0.0654251 -0.337735
upperback -0.109746 -0.00288595 2.64826
thorax -4.19141 0.0331902 2.9386
lowerneck -19.3034 -4.50376 -9.95085
upperneck 15.3175 -4.73273 6.99181
head 8.34108 -2.12176 3.37497
rclavicle 1.39149e-015 -3.10104e-014
rhumerus -37.764 -13.9735 -74.6594
rradius 30.1627
rwrist 8.29036
rhand -13.4656 12.7285
rfingers 7.12502
rthumb 12.6444 -16.8688
lclavicle 1.39149e-015 -3.10104e-014
lhumerus -38.3249 14.2201 81.8957
lradius 24.0103
lwrist -14.2564
lhand -10.2705 30.7782
lfingers 7.12502
lthumb 15.7231 60.1594
rfemur -9.84244 3.19784 20.2673
rtibia 23.7635
rfoot -11.2681 -8.90358
rtoes 1.50386
lfemur -10.3474 -1.95406 -20.9349
ltibia 23.8218
lfoot -13.2002 3.65837
ltoes 1.85546
236
root 1.33917 17.7272 -17.3184 2.80604 -0.580103 -0.21829
lowerback 7.23935 -0.0603163 -0.398839
upperback -0.10283 -0.00368518 2.60129
thorax -4.16986 0.0333457 2.92394
lowerneck -19.404 -4.56324 -9.88201
upperneck 15.465 -4.80722 6.87801
head 8.41029 -2.1634 3.31493
rclavicle -1.69961e-014 5.56597e-015
rhumerus -37.5664 -14.2577 -74.5477
rradius 30.0303
rwrist 8.56611
rhand -13.5064 12.8036
rfingers 7.12502
rthumb 12.6051 -16.7961
lclavicle -1.69961e-014 5.56597e-015
lhumerus -38.1666 14.2979 81.6186
lradius 23.9118
lwrist -14.7983
lhand -9.96354 31.3725
lfingers 7.12502
lthumb 16.0188 60.7302
rfemur -9.64762 3.17178 20.1712
rtibia 23.5125
rfoot -11.1812 -8.90102
rtoes 1.35207
lfemur -10.0272 -2.20926 -21.009
ltibia 23.4536
lfoot -13.064 3.76905
ltoes 2.40878
237
root 1.34428 17.7342 -17.3258 2.77989 -0.691179 -0.15894
lowerback 7.23066 -0.0247743 -0.497002
upperback -0.177364 0.0360562 2.58521
thorax -4.24472 0.056255 2.95902
lowerneck -19.2954 -4.49887 -9.84245
upperneck 15.443 -4.73089 6.83187
head 8.37492 -2.13169 3.30376
rclavicle 6.06293e-015 7.95139e-016
rhumerus -37.4954 -14.4686 -74.388
rradius 29.9671
rwrist 8.77984
rhand -13.3326 12.4266
rfingers 7.12502
rthumb 12.7725 -17.1627
lclavicle 6.06293e-015 7.95139e-016
lhumerus -38.1834 14.5655 81.2963
lradius 23.7676
lwrist -14.9015
lhand -10.4883 31.0257
lfingers 7.12502
lthumb 15.5134 60.4233
rfemur -9.57122 3.25461 20.0753
rtibia 23.3124
rfoot -11.0633 -8.87214
rtoes 1.17471
lfemur -9.75598 -2.34075 -21.0971
ltibia 23.0688
lfoot -12.958 3.93247
ltoes 2.46024
238
root 1.34817 17.7431 -17.3329 2.73923 -0.877817 -0.0668386
lowerback 7.103 0.0357479 -0.622697
upperback -0.142751 0.103004 2.55297
thorax -4.14072 0.0905321 2.98807
lowerneck -19.2193 -4.30932 -9.89984
upperneck 15.0253 -4.47954 7.00929
head 8.20413 -1.99708 3.40463
rclavicle -1.22253e-014 -1.74931e-014
rhumerus -37.1968 -14.7629 -74.3108
rradius 29.9023
rwrist 8.88039
rhand -13.1743 11.9945
rfingers 7.12502
rthumb 12.9252 -17.5852
lclavicle -1.22253e-014 -1.74931e-014
lhumerus -38.021 14.8502 81.0155
lradius 23.6268
lwrist -14.9028
lhand -11.1484 30.5044
lfingers 7.12502
lthumb 14.8775 59.9502
rfemur -9.4916 3.39859 19.9464
rtibia 23.1523
rfoot -10.9793 -8.795
rtoes 1.56056
lfemur -9.51956 -2.36283 -21.2294
ltibia 22.7012
lfoot -12.7766 4.08829
ltoes 2.69161
239
root 1.34918 17.7494 -17.3434 2.67503 -1.01478 0.0346692
lowerback 7.05052 0.0754509 -0.763111
upperback -0.0449009 0.1399 2.49919
thorax -4.01176 0.109037 3.00642
lowerneck -19.4009 -4.19052 -9.92931
upperneck 14.822 -4.3087 7.15008
head 8.15548 -1.89902 3.4773
rclavicle -1.13307e-014 -1.59028e-015
rhumerus -36.6952 -14.9153 -74.4391
rradius 29.8033
rwrist 8.76583
rhand -13.2879 11.8383
rfingers 7.12502
rthumb 12.8157 -17.7483
lclavicle -1.13307e-014 -1.59028e-015
lhumerus -37.6945 14.9538 80.7775
lradius 23.6332
lwrist -15.2745
lhand -11.1194 30.8588
lfingers 7.12502
lthumb 14.9054 60.3025
rfemur -9.37511 3.50373 19.827
rtibia 22.9789
rfoot -10.8372 -8.74517
rtoes 1.8363
lfemur -9.31271 -2.41267 -21.3586
ltibia 22.4107
lfoot -12.5938 4.16687
ltoes 3.08001
240
root 1.3489 17.7525 -17.3593 2.61192 -0.980698 0.0498713
lowerback 7.21212 0.05957 -0.792015
upperback -0.0687152 0.115531 2.44993
thorax -4.12588 0.098393 2.97516
lowerneck -19.4626 -4.17104 -9.82528
upperneck 14.8141 -4.30496 7.1501
head 8.16064 -1.88996 3.46039
rclavicle 1.80894e-014 -3.18055e-015
rhumerus -36.3981 -15.0268 -74.5364
rradius 29.7095
rwrist 8.69156
rhand -13.5083 11.81
rfingers 7.12502
rthumb 12.6032 -17.7898
lclavicle 1.80894e-014 -3.18055e-015
lhumerus -37.4172 15.355 80.2573
lradius 23.1446
lwrist -15.7486
lhand -11.3372 29.9292
lfingers 7.12502
lthumb 14.6956 59.3883
rfemur -9.27755 3.55582 19.8238
rtibia 22.8114
rfoot -10.6313 -8.7847
rtoes 1.82067
lfemur -9.18441 -2.55527 -21.3793
ltibia 22.1734
lfoot -12.3717 4.22834
ltoes 3.40486
241
root 1.34956 17.758 -17.3707 2.5778 -0.834627 0.0326114
lowerback 7.33533 0.03006 -0.746223
upperback -0.128846 0.0789832 2.38504
thorax -4.25535 0.080441 2.88681
lowerneck -19.3679 -4.16344 -9.66135
upperneck 14.6765 -4.33929 7.12489
head 8.09689 -1.9002 3.41959
rclavicle -2.127e-014 2.38542e-015
rhumerus -36.1475 -15.4165 -74.5171
rradius 29.4756
rwrist 8.85064
rhand -13.6775 12.0689
rfingers 7.12502
rthumb 12.44 -17.5409
lclavicle -2.127e-014 2.38542e-015
lhumerus -37.2181 15.4993 79.8827
lradius 23.0611
lwrist -16.0751
lhand -10.4643 30.8498
lfingers 7.12502
lthumb 15.5365 60.2456
rfemur -9.1891 3.57654 19.8647
rtibia 22.6615
rfoot -10.4969 -8.90469
rtoes 1.92511
lfemur -9.11667 -2.75002 -21.3665
ltibia 21.939
lfoot -12.1382 4.29351
ltoes 2.86894
242
root 1.35175 17.7658 -17.3735 2.39857 -0.836221 0.105165
lowerback 7.51751 0.0401295 -0.820378
upperback -0.194375 0.0850661 2.32308
thorax -4.42645 0.0866864 2.86521
lowerneck -19.102 -4.10279 -9.66745
upperneck 14.6307 -4.29457 7.20641
head 8.03397 -1.87616 3.45563
rclavicle 7.20594e-015 -3.18055e-015
rhumerus -36.0843 -15.6415 -74.4591
rradius 29.3576
rwrist 8.94692
rhand -13.7166 11.9116
rfingers 7.12502
rthumb 12.4023 -17.7005
lclavicle 7.20594e-015 -3.18055e-015
lhumerus -37.2184 15.3871 79.7145
lradius 23.2531
lwrist -15.4812
lhand -10.8571 30.5412
lfingers 7.12502
lthumb 15.1581 59.966
rfemur -8.90375 3.64129 19.7914
rtibia 22.4846
rfoot -10.4624 -8.91524
rtoes 2.19836
lfemur -8.86999 -2.8733 -21.5
ltibia 21.7302
lfoot -12.0026 4.49202
ltoes 1.90862
243
root 1.34985 17.771 -17.3798 2.21669 -0.813206 0.218091
lowerback 7.6265 0.0257398 -1.02806
upperback -0.216507 0.0474179 2.31148
thorax -4.50909 0.0737256 2.9758
lowerneck -18.8604 -4.05918 -9.65421
upperneck 14.6391 -4.2516 7.1496
head 7.98977 -1.8654 3.44129
rclavicle 1.34677e-014 2.78299e-014
rhumerus -36.0084 -15.5728 -74.4848
rradius 29.4434
rwrist 8.86885
rhand -13.6284 11.1849
rfingers 7.12502
rthumb 12.4874 -18.422
lclavicle 1.34677e-014 2.78299e-014
lhumerus -37.0282 15.6026 79.4874
lradius 23.0547
lwrist -15.3152
lhand -11.5558 29.1574
lfingers 7.12502
lthumb 14.485 58.6318
rfemur -8.5946 3.73727 19.6885
rtibia 22.2513
rfoot -10.4196 -9.0048
rtoes 2.39641
lfemur -8.60389 -2.97345 -21.6284
ltibia 21.5652
lfoot -11.9436 4.54117
ltoes 1.71431
244
root 1.34571 17.7762 -17.3868 2.21092 -0.79504 0.165896
lowerback 7.49861 0.0129462 -1.07795
upperback -0.195901 0.0264405 2.3329
thorax -4.41443 0.063438 3.0276
lowerneck -18.9171 -4.07688 -9.532
upperneck 14.7328 -4.2787 6.9974
head 8.02684 -1.88573 3.36641
rclavicle -2.13197e-014 -2.22639e-014
rhumerus -35.6686 -15.4573 -74.6551
rradius 29.4834
rwrist 8.70103
rhand -13.3912 11.3462
rfingers 7.12502
rthumb 12.7161 -18.2466
lclavicle -2.13197e-014 -2.22639e-014
lhumerus -36.7063 15.5525 79.4082
lradius 23.0396
lwrist -15.1258
lhand -11.2482 29.7187
lfingers 7.12502
lthumb 14.7814 59.1715
rfemur -8.46789 3.89769 19.7793
rtibia 21.9879
rfoot -10.2319 -9.18001
rtoes 2.22576
lfemur -8.52906 -3.08889 -21.5379
ltibia 21.4357
lfoot -11.863 4.5692
ltoes 2.69571
